<svg width="473" height="300" viewBox="0 0 473 300" fill="none" xmlns="http://www.w3.org/2000/svg">
<g clip-path="url(#clip0_708_20)">
<path fill-rule="evenodd" clip-rule="evenodd" d="M35.7921 84.8379C34.4448 84.8395 33.1404 84.367 32.1062 83.5035C31.0719 82.64 30.3749 81.4402 30.136 80.1143C25.557 55.5892 23.1645 30.7066 22.9878 5.75839C22.9878 4.23422 23.5937 2.77314 24.6715 1.69539C25.7492 0.61764 27.2103 0.0117313 28.7345 0.0117313C29.4896 0.0101532 30.2375 0.157551 30.9355 0.4458C31.6335 0.73405 32.2679 1.15704 32.8018 1.69101C33.3358 2.22497 33.7588 2.8594 34.0471 3.55736C34.3353 4.25532 34.4827 5.00326 34.4811 5.75839C34.6556 30.0223 36.9879 54.2232 41.4496 78.074C41.72 79.5726 41.3848 81.1164 40.5172 82.3679C39.6495 83.6194 38.3207 84.4763 36.8225 84.7487C36.4828 84.8104 36.1374 84.8398 35.7921 84.8379Z" fill="#6F0911"/>
<path fill-rule="evenodd" clip-rule="evenodd" d="M119.134 92.6262C149.503 82.3656 162.972 41.0539 162.972 41.0539C162.972 41.0539 127.203 16.3842 96.8405 26.6448C66.4777 36.9054 53.0024 78.2113 53.0024 78.2113C53.0024 78.2113 88.7656 102.887 119.134 92.6262Z" fill="#5DB67D"/>
<path fill-rule="evenodd" clip-rule="evenodd" d="M41.6531 57.4144C51.2013 63.0117 77.0623 76.1406 98.9005 68.7894C120.817 61.3843 133.37 35.2652 137.537 25.0405C127.995 19.4432 102.134 6.29781 80.2954 13.667C58.4572 21.0362 45.8316 47.1957 41.6531 57.4144ZM84.7618 82.4618C57.7215 82.4618 32.632 65.4134 31.3509 64.5335C30.331 63.8302 29.5663 62.815 29.1703 61.6411C28.7743 60.4672 28.7687 59.1968 29.1542 58.0195C29.7529 56.2236 43.8926 13.8399 76.6081 2.78313C109.323 -8.27366 146.289 16.8337 147.845 17.9112C148.865 18.615 149.63 19.6286 150.027 20.8021C150.424 21.9756 150.432 23.2456 150.049 24.4237C149.45 26.2196 135.303 68.5973 102.582 79.6601C96.8336 81.5576 90.8152 82.504 84.7618 82.4618Z" fill="#6F0911"/>
<path fill-rule="evenodd" clip-rule="evenodd" d="M187.81 80.1028C199.775 101.082 208.813 123.601 214.671 147.031C237.003 156.217 257.975 168.414 277.001 183.284C260.747 201.146 242.124 216.699 221.651 229.51C219.817 253.591 214.697 277.308 206.434 300C184.425 290.06 163.881 277.152 145.373 261.639C121.905 267.338 97.767 269.799 73.632 268.949C76.2807 244.944 82.2053 221.414 91.2388 199.016C78.5713 178.456 68.7746 156.26 62.1211 133.046C85.7702 128.15 109.977 126.513 134.07 128.179C149.705 109.774 167.782 93.5977 187.81 80.1028Z" fill="#F5BD3C"/>
<path fill-rule="evenodd" clip-rule="evenodd" d="M126.977 237.5C128.286 237.503 129.553 237.956 130.568 238.782C147.201 252.595 165.403 264.4 184.799 273.952C191.519 253.4 195.791 232.128 197.526 210.575C197.605 209.714 197.879 208.88 198.325 208.14C198.772 207.4 199.38 206.771 200.106 206.3C218.386 194.755 235.239 181.091 250.314 165.592C232.85 152.852 213.941 142.218 193.982 133.913C193.188 133.568 192.483 133.049 191.917 132.394C191.351 131.739 190.94 130.966 190.714 130.13C185.381 109.179 177.593 88.9295 167.511 69.8049C149.994 82.4785 134.035 97.1767 119.967 113.595C119.393 114.24 118.682 114.748 117.887 115.084C117.091 115.42 116.232 115.573 115.37 115.534C93.7936 114.126 72.1251 115.273 50.818 118.953C57.4535 139.528 66.4957 159.248 77.7566 177.702C78.1979 178.446 78.4664 179.28 78.54 180.142C78.6136 181.003 78.4906 181.87 78.1819 182.677C70.1768 202.761 64.5755 223.722 61.4929 245.122C83.1138 245.165 104.663 242.656 125.696 237.645C126.116 237.547 126.546 237.498 126.977 237.5ZM188.038 287.355C187.294 287.356 186.557 287.209 185.87 286.924C164.163 277.199 143.864 264.594 125.522 249.45C102.364 254.885 78.581 257.185 54.8109 256.286C54.0588 256.233 53.3247 256.031 52.6508 255.693C51.9768 255.355 51.3762 254.887 50.8838 254.316C50.3881 253.744 50.0114 253.078 49.7731 252.359C49.5347 251.64 49.4399 250.882 49.4954 250.126C52.0419 226.477 57.7589 203.277 66.4913 181.152C54.1659 160.808 44.6313 138.898 38.1453 116.014C37.9635 115.282 37.9278 114.522 38.04 113.776C38.1523 113.03 38.4109 112.313 38.8 111.667C39.1892 111.021 39.7015 110.459 40.3083 110.011C40.9151 109.563 41.6034 109.24 42.3354 109.058C65.6118 104.172 89.4396 102.44 113.178 103.909C128.714 85.8977 146.605 70.0595 166.367 56.8209C167.007 56.4226 167.72 56.1545 168.464 56.0316C169.208 55.9087 169.969 55.9335 170.703 56.1047C171.437 56.2759 172.13 56.5906 172.743 57.0299C173.356 57.4691 173.877 58.0234 174.275 58.6638C186.115 79.2944 195.13 101.424 201.076 124.455C223.006 133.668 243.598 145.786 262.299 160.486C263.462 161.47 264.186 162.877 264.314 164.395C264.442 165.914 263.963 167.42 262.981 168.586C247.02 186.223 228.757 201.633 208.685 214.4C206.71 238.104 201.547 261.433 193.336 283.757C192.909 284.817 192.174 285.726 191.227 286.366C190.28 287.006 189.163 287.349 188.02 287.349" fill="#6F0911"/>
<path fill-rule="evenodd" clip-rule="evenodd" d="M164.636 178.596C163.196 178.597 161.809 178.055 160.748 177.081C159.688 176.106 159.033 174.768 158.913 173.333C158.787 171.814 159.267 170.308 160.25 169.143C161.233 167.978 162.638 167.251 164.157 167.12L169.61 166.664C170.362 166.599 171.119 166.683 171.838 166.911C172.558 167.139 173.226 167.508 173.803 167.994C174.38 168.481 174.854 169.076 175.2 169.747C175.546 170.418 175.756 171.15 175.818 171.902C175.883 172.655 175.799 173.413 175.571 174.133C175.343 174.852 174.975 175.52 174.488 176.097C174.002 176.674 173.405 177.149 172.734 177.496C172.064 177.842 171.332 178.053 170.58 178.117L165.126 178.577C164.964 178.577 164.798 178.577 164.636 178.577" fill="#6F0911"/>
<path fill-rule="evenodd" clip-rule="evenodd" d="M153.861 205.008C152.727 205.008 151.618 204.673 150.673 204.046C149.729 203.419 148.991 202.528 148.551 201.482L146.432 196.436C146.139 195.74 145.985 194.993 145.981 194.238C145.976 193.483 146.121 192.736 146.406 192.037C146.691 191.338 147.112 190.701 147.644 190.164C148.175 189.628 148.807 189.202 149.503 188.91C150.198 188.617 150.945 188.465 151.699 188.46C152.454 188.456 153.203 188.6 153.902 188.886C154.601 189.171 155.236 189.591 155.773 190.122C156.309 190.653 156.736 191.285 157.028 191.981L159.153 197.028C159.742 198.433 159.749 200.015 159.174 201.425C158.598 202.836 157.485 203.961 156.081 204.553C155.378 204.851 154.624 205.005 153.861 205.008Z" fill="#6F0911"/>
<path fill-rule="evenodd" clip-rule="evenodd" d="M123.29 197.855C122.465 197.856 121.648 197.679 120.897 197.337C120.146 196.995 119.478 196.496 118.937 195.873C118.443 195.301 118.067 194.637 117.829 193.92C117.592 193.203 117.499 192.446 117.555 191.693C117.61 190.939 117.814 190.204 118.154 189.53C118.494 188.855 118.963 188.254 119.535 187.761L123.684 184.169C124.255 183.675 124.918 183.3 125.634 183.063C126.35 182.826 127.106 182.732 127.858 182.788C128.611 182.843 129.345 183.047 130.018 183.387C130.692 183.727 131.292 184.196 131.784 184.768C132.278 185.339 132.653 186.003 132.89 186.719C133.127 187.436 133.221 188.192 133.165 188.945C133.109 189.698 132.906 190.433 132.566 191.107C132.226 191.781 131.757 192.381 131.185 192.874L127.043 196.465C126 197.365 124.668 197.856 123.29 197.855Z" fill="#6F0911"/>
<path fill-rule="evenodd" clip-rule="evenodd" d="M125.318 169.407C124.264 169.411 123.228 169.126 122.325 168.581L117.638 165.745C116.992 165.355 116.428 164.842 115.981 164.235C115.533 163.628 115.21 162.939 115.029 162.206C114.849 161.474 114.815 160.713 114.929 159.967C115.042 159.221 115.302 158.505 115.693 157.86C116.082 157.213 116.595 156.649 117.203 156.201C117.81 155.753 118.5 155.429 119.233 155.248C119.966 155.067 120.727 155.031 121.473 155.144C122.22 155.258 122.936 155.518 123.582 155.909L128.269 158.739C129.572 159.529 130.509 160.803 130.874 162.282C131.238 163.761 131.002 165.325 130.216 166.63C129.705 167.479 128.983 168.181 128.12 168.668C127.258 169.154 126.285 169.408 125.295 169.407" fill="#6F0911"/>
<path fill-rule="evenodd" clip-rule="evenodd" d="M148.324 159.722C147.883 159.721 147.443 159.671 147.013 159.573C145.528 159.225 144.242 158.302 143.437 157.006C142.632 155.711 142.374 154.149 142.721 152.664L143.966 147.335C144.135 146.599 144.448 145.904 144.887 145.289C145.326 144.674 145.882 144.152 146.524 143.753C147.165 143.354 147.88 143.087 148.625 142.965C149.371 142.844 150.133 142.87 150.869 143.044C151.604 143.216 152.297 143.53 152.91 143.969C153.524 144.409 154.045 144.965 154.443 145.606C154.842 146.247 155.111 146.96 155.234 147.705C155.357 148.45 155.332 149.211 155.161 149.946L153.922 155.28C153.625 156.543 152.91 157.667 151.895 158.473C150.879 159.28 149.621 159.72 148.324 159.722Z" fill="#6F0911"/>
<path fill-rule="evenodd" clip-rule="evenodd" d="M43.7249 120.404C42.4742 120.401 41.2587 119.989 40.2626 119.233C39.2665 118.477 38.5435 117.416 38.2048 116.212C38.1509 116.026 36.8463 111.477 35.0084 103.599C34.6599 102.116 34.9143 100.555 35.7158 99.2599C36.5173 97.9645 37.7994 97.0405 39.2819 96.6906C40.7678 96.3457 42.3296 96.6037 43.6255 97.4082C44.9215 98.2127 45.8462 99.4984 46.1963 100.983C47.9922 108.544 49.2313 113.004 49.2553 113.046C49.4628 113.772 49.5253 114.531 49.4394 115.281C49.3535 116.031 49.1217 116.756 48.7554 117.416C48.3891 118.076 47.8951 118.657 47.3041 119.126C46.7132 119.596 46.0362 119.943 45.3106 120.151C44.7954 120.302 44.2618 120.379 43.7249 120.379" fill="#6F0911"/>
</g>
<path d="M232.328 94.032C232.883 91.9413 233.16 90.192 233.16 88.784C233.16 87.376 232.776 86.224 232.008 85.328C231.24 84.3893 230.237 83.92 229 83.92C227.805 83.92 226.803 84.5173 225.992 85.712C225.181 86.9067 224.776 88.272 224.776 89.808C224.776 92.7947 226.483 95.3547 229.896 97.488C233.309 99.7067 235.635 101.307 236.872 102.288C238.109 103.269 238.984 104.165 239.496 104.976C240.776 107.067 241.416 109.221 241.416 111.44C241.416 115.28 240.115 118.352 237.512 120.656C234.952 122.917 232.051 124.048 228.808 124.048C224.968 124.048 221.747 122.427 219.144 119.184C217.267 116.837 215.539 113.915 213.96 110.416L220.168 107.408C221.149 109.968 222.365 112.144 223.816 113.936C225.309 115.685 226.888 116.56 228.552 116.56C229.619 116.56 230.579 116.219 231.432 115.536C232.285 114.853 232.712 113.829 232.712 112.464C232.712 111.056 232.179 109.755 231.112 108.56C230.045 107.365 228.616 106.149 226.824 104.912C225.032 103.675 223.645 102.672 222.664 101.904C221.683 101.093 220.595 100.069 219.4 98.832C217.139 96.4427 216.008 93.392 216.008 89.68C216.008 85.9253 217.309 82.7893 219.912 80.272C222.515 77.712 225.608 76.432 229.192 76.432C232.776 76.432 235.784 77.8187 238.216 80.592C240.691 83.3653 241.928 86.224 241.928 89.168C241.928 92.0693 241.373 94.5653 240.264 96.656L232.328 94.032ZM252.655 122.128C252.228 114.576 252.015 108.005 252.015 102.416C252.015 96.784 252.143 90.9173 252.399 84.816L244.591 85.904L243.183 78.48C247.364 77.7547 251.503 77.2213 255.599 76.88L267.567 76.24L268.783 83.344C266.436 83.472 263.791 83.664 260.847 83.92C260.591 90.064 260.463 95.696 260.463 100.816C260.463 105.936 260.548 113.275 260.719 122.832L252.655 122.128ZM288.967 121.36L287.495 112.464L277.959 112.848L275.527 124.88L266.567 124.112L278.023 77.712L289.863 78.736L298.247 122.128L288.967 121.36ZM283.335 86.096L279.303 106L286.471 105.744L283.335 86.096ZM303.343 122.576C303.898 112.336 304.175 103.205 304.175 95.184C304.175 87.1627 304.154 81.8933 304.111 79.376C308.804 77.1573 313.69 76.048 318.767 76.048C322.522 76.048 325.658 77.2427 328.175 79.632C330.735 82.0213 332.015 85.392 332.015 89.744C332.015 94.7787 328.452 99.6213 321.327 104.272C325.21 109.136 329.178 114.491 333.231 120.336L327.087 124.88C324.399 120.827 319.578 114.213 312.623 105.04C312.495 111.611 312.303 117.776 312.047 123.536L303.343 122.576ZM312.815 100.688C315.972 99.1947 318.66 97.36 320.879 95.184C323.098 92.9653 324.207 90.96 324.207 89.168C324.207 87.376 323.674 85.9893 322.607 85.008C321.583 84.0267 320.218 83.536 318.511 83.536C316.804 83.536 314.927 83.8987 312.879 84.624C312.879 91.8347 312.858 97.1893 312.815 100.688ZM359.944 77.968V85.84C355.165 85.84 350.685 85.9893 346.504 86.288C346.419 87.5253 346.333 89.7227 346.248 92.88C346.205 95.9947 346.163 97.9147 346.12 98.64C350.899 98 354.739 97.68 357.64 97.68L358.92 104.72C354.141 104.848 349.853 105.147 346.056 105.616C346.056 112.272 346.141 118.139 346.312 123.216L337.672 122.256C337.587 115.344 337.544 108.923 337.544 102.992C337.544 97.0613 337.885 89.2747 338.568 79.632C345.864 78.5227 352.989 77.968 359.944 77.968ZM363.968 122.576C364.523 112.336 364.8 103.205 364.8 95.184C364.8 87.1627 364.779 81.8933 364.736 79.376C369.429 77.1573 374.315 76.048 379.392 76.048C383.147 76.048 386.283 77.2427 388.8 79.632C391.36 82.0213 392.64 85.392 392.64 89.744C392.64 94.7787 389.077 99.6213 381.952 104.272C385.835 109.136 389.803 114.491 393.856 120.336L387.712 124.88C385.024 120.827 380.203 114.213 373.248 105.04C373.12 111.611 372.928 117.776 372.672 123.536L363.968 122.576ZM373.44 100.688C376.597 99.1947 379.285 97.36 381.504 95.184C383.723 92.9653 384.832 90.96 384.832 89.168C384.832 87.376 384.299 85.9893 383.232 85.008C382.208 84.0267 380.843 83.536 379.136 83.536C377.429 83.536 375.552 83.8987 373.504 84.624C373.504 91.8347 373.483 97.1893 373.44 100.688ZM405.849 106.96C405.849 109.179 406.34 111.163 407.321 112.912C408.302 114.661 409.454 115.536 410.777 115.536C412.142 115.536 413.23 114.939 414.041 113.744C414.852 112.549 415.428 110.971 415.769 109.008C416.366 105.552 416.665 101.563 416.665 97.04C416.665 92.4747 416.388 85.7973 415.833 77.008L424.537 77.904C425.134 86.6933 425.433 92.6667 425.433 95.824C425.433 98.9813 425.39 101.2 425.305 102.48C425.22 103.717 425.049 105.168 424.793 106.832C424.537 108.496 424.196 110.053 423.769 111.504C423.342 112.955 422.766 114.405 422.041 115.856C421.316 117.307 420.462 118.544 419.481 119.568C417.305 121.915 414.34 123.088 410.585 123.088C406.873 123.088 403.694 121.424 401.049 118.096C398.404 114.768 397.081 111.056 397.081 106.96C397.081 97.9573 397.572 88.3573 398.553 78.16L407.257 78.992C406.318 88.336 405.849 97.6587 405.849 106.96ZM443.037 77.712C442.653 84.4533 442.461 92.048 442.461 100.496C442.461 108.944 442.738 116.645 443.293 123.6L434.653 122.832C434.098 114.128 433.821 106.277 433.821 99.28C433.821 92.24 434.013 84.7947 434.397 76.944L443.037 77.712ZM455.905 122.128C455.478 114.576 455.265 108.005 455.265 102.416C455.265 96.784 455.393 90.9173 455.649 84.816L447.841 85.904L446.433 78.48C450.614 77.7547 454.753 77.2213 458.849 76.88L470.817 76.24L472.033 83.344C469.686 83.472 467.041 83.664 464.097 83.92C463.841 90.064 463.713 95.696 463.713 100.816C463.713 105.936 463.798 113.275 463.969 122.832L455.905 122.128Z" fill="#6F0911"/>
<path d="M287.328 131.562C287.328 132.49 287.146 133.365 286.781 134.188C286.417 135 285.953 135.75 285.391 136.438C284.839 137.125 284.229 137.75 283.562 138.312C282.906 138.865 282.281 139.344 281.688 139.75C282.521 139.823 283.349 140.026 284.172 140.359C285.005 140.682 285.75 141.135 286.406 141.719C287.073 142.292 287.609 142.99 288.016 143.812C288.432 144.625 288.641 145.552 288.641 146.594C288.641 147.448 288.516 148.219 288.266 148.906C288.026 149.583 287.703 150.193 287.297 150.734C286.891 151.266 286.427 151.724 285.906 152.109C285.396 152.495 284.875 152.812 284.344 153.062C283.812 153.312 283.286 153.495 282.766 153.609C282.255 153.734 281.802 153.797 281.406 153.797C280.406 153.797 279.573 153.677 278.906 153.438C278.25 153.198 277.724 152.906 277.328 152.562C276.943 152.208 276.672 151.839 276.516 151.453C276.359 151.068 276.281 150.729 276.281 150.438C276.281 149.99 276.375 149.562 276.562 149.156C276.76 148.74 277.021 148.365 277.344 148.031C277.667 147.698 278.042 147.406 278.469 147.156C278.896 146.896 279.339 146.698 279.797 146.562L280.125 147.078C279.469 147.432 278.984 147.891 278.672 148.453C278.359 149.005 278.203 149.562 278.203 150.125C278.203 150.438 278.266 150.766 278.391 151.109C278.526 151.443 278.724 151.75 278.984 152.031C279.255 152.312 279.589 152.547 279.984 152.734C280.391 152.911 280.865 153 281.406 153C282.198 153 282.938 152.854 283.625 152.562C284.312 152.26 284.906 151.849 285.406 151.328C285.917 150.797 286.312 150.177 286.594 149.469C286.885 148.76 287.031 147.995 287.031 147.172C287.031 146.328 286.854 145.583 286.5 144.938C286.156 144.292 285.693 143.75 285.109 143.312C284.536 142.865 283.87 142.526 283.109 142.297C282.359 142.068 281.578 141.953 280.766 141.953C280.432 141.953 280.104 141.974 279.781 142.016C279.458 142.047 279.151 142.094 278.859 142.156C278.578 142.208 278.323 142.26 278.094 142.312C277.865 142.365 277.688 142.406 277.562 142.438L277.406 142.281L278.844 140.047C278.958 140.016 279.089 139.979 279.234 139.938C279.359 139.906 279.51 139.875 279.688 139.844C279.865 139.802 280.062 139.771 280.281 139.75C280.781 139.448 281.302 139.068 281.844 138.609C282.396 138.141 282.896 137.604 283.344 137C283.802 136.385 284.177 135.698 284.469 134.938C284.771 134.177 284.922 133.349 284.922 132.453C284.922 130.943 284.562 129.802 283.844 129.031C283.125 128.26 282.099 127.875 280.766 127.875C279.995 127.875 279.219 128.042 278.438 128.375C277.656 128.698 276.901 129.198 276.172 129.875C275.453 130.552 274.776 131.406 274.141 132.438C273.516 133.469 272.969 134.682 272.5 136.078C272.042 137.474 271.677 139.062 271.406 140.844C271.135 142.625 271 144.599 271 146.766C271 147.661 271.036 148.49 271.109 149.25C271.193 150.01 271.312 150.672 271.469 151.234C271.635 151.786 271.839 152.219 272.078 152.531C272.318 152.844 272.599 153 272.922 153C273.245 153 273.5 152.766 273.688 152.297C273.885 151.818 274.031 151.198 274.125 150.438C274.229 149.667 274.292 148.807 274.312 147.859C274.344 146.911 274.359 145.958 274.359 145C274.359 143.542 274.339 142.172 274.297 140.891C274.255 139.599 274.208 138.448 274.156 137.438C274.115 136.427 274.073 135.583 274.031 134.906C273.99 134.229 273.964 133.776 273.953 133.547L275.766 133C275.818 133.083 275.891 133.333 275.984 133.75C276.078 134.167 276.172 134.719 276.266 135.406C276.359 136.083 276.438 136.875 276.5 137.781C276.573 138.677 276.609 139.646 276.609 140.688C276.609 142.448 276.557 143.995 276.453 145.328C276.359 146.651 276.224 147.802 276.047 148.781C275.87 149.75 275.661 150.557 275.422 151.203C275.193 151.849 274.938 152.365 274.656 152.75C274.385 153.125 274.099 153.391 273.797 153.547C273.505 153.714 273.214 153.797 272.922 153.797C272.286 153.797 271.714 153.578 271.203 153.141C270.703 152.714 270.276 152.146 269.922 151.438C269.568 150.719 269.297 149.901 269.109 148.984C268.922 148.057 268.828 147.104 268.828 146.125C268.828 144.719 268.958 143.266 269.219 141.766C269.479 140.266 269.865 138.802 270.375 137.375C270.885 135.938 271.516 134.578 272.266 133.297C273.016 132.005 273.88 130.88 274.859 129.922C275.839 128.953 276.927 128.188 278.125 127.625C279.333 127.052 280.641 126.766 282.047 126.766C282.849 126.766 283.573 126.875 284.219 127.094C284.875 127.302 285.432 127.615 285.891 128.031C286.349 128.438 286.703 128.938 286.953 129.531C287.203 130.125 287.328 130.802 287.328 131.562ZM295.516 151.234C295.88 151.234 296.25 151.141 296.625 150.953C297.01 150.766 297.396 150.474 297.781 150.078C298.177 149.682 298.583 149.172 299 148.547C299.417 147.911 299.844 147.156 300.281 146.281L300.438 145.953L301.078 146.438L300.922 146.766C300.359 147.88 299.797 148.833 299.234 149.625C298.682 150.417 298.135 151.062 297.594 151.562C297.062 152.062 296.536 152.427 296.016 152.656C295.495 152.885 294.995 153 294.516 153C293.839 153 293.234 152.859 292.703 152.578C292.172 152.297 291.724 151.917 291.359 151.438C290.995 150.948 290.719 150.385 290.531 149.75C290.333 149.104 290.234 148.427 290.234 147.719C290.234 146.594 290.391 145.573 290.703 144.656C291.005 143.729 291.411 142.938 291.922 142.281C292.443 141.625 293.031 141.115 293.688 140.75C294.344 140.385 295.026 140.203 295.734 140.203C296.453 140.203 297 140.385 297.375 140.75C297.76 141.115 297.953 141.573 297.953 142.125C297.953 142.656 297.802 143.156 297.5 143.625C297.198 144.083 296.786 144.536 296.266 144.984C295.755 145.422 295.161 145.859 294.484 146.297C293.807 146.724 293.094 147.167 292.344 147.625C292.417 148.167 292.542 148.661 292.719 149.109C292.896 149.547 293.12 149.927 293.391 150.25C293.661 150.562 293.974 150.807 294.328 150.984C294.682 151.151 295.078 151.234 295.516 151.234ZM296 142.594C296 142.177 295.885 141.849 295.656 141.609C295.438 141.37 295.167 141.25 294.844 141.25C294.573 141.25 294.286 141.349 293.984 141.547C293.682 141.734 293.406 142.042 293.156 142.469C292.906 142.885 292.698 143.422 292.531 144.078C292.365 144.734 292.281 145.531 292.281 146.469V146.828C292.635 146.641 293.026 146.396 293.453 146.094C293.891 145.781 294.297 145.438 294.672 145.062C295.047 144.688 295.359 144.292 295.609 143.875C295.87 143.448 296 143.021 296 142.594ZM309.906 149.125C309.906 149.719 309.958 150.219 310.062 150.625C310.167 151.031 310.349 151.234 310.609 151.234C310.766 151.234 310.932 151.161 311.109 151.016C311.297 150.859 311.51 150.609 311.75 150.266C311.99 149.922 312.26 149.479 312.562 148.938C312.875 148.385 313.229 147.714 313.625 146.922L314.094 145.953L314.734 146.438L314.266 147.406C313.828 148.281 313.417 149.068 313.031 149.766C312.656 150.453 312.297 151.036 311.953 151.516C311.609 151.995 311.271 152.365 310.938 152.625C310.615 152.875 310.292 153 309.969 153C309.625 153 309.333 152.906 309.094 152.719C308.865 152.531 308.672 152.276 308.516 151.953C308.359 151.62 308.24 151.24 308.156 150.812C308.073 150.375 308.016 149.911 307.984 149.422C307.734 149.922 307.458 150.391 307.156 150.828C306.854 151.255 306.536 151.63 306.203 151.953C305.88 152.276 305.542 152.531 305.188 152.719C304.833 152.906 304.479 153 304.125 153C303.604 153 303.099 152.891 302.609 152.672C302.12 152.453 301.682 152.12 301.297 151.672C300.922 151.224 300.62 150.661 300.391 149.984C300.161 149.297 300.047 148.49 300.047 147.562C300.047 146.479 300.188 145.49 300.469 144.594C300.75 143.688 301.13 142.911 301.609 142.266C302.089 141.609 302.641 141.104 303.266 140.75C303.891 140.385 304.547 140.203 305.234 140.203C305.651 140.203 306.036 140.297 306.391 140.484C306.745 140.672 307.052 140.901 307.312 141.172C307.583 141.432 307.807 141.714 307.984 142.016C308.161 142.307 308.281 142.557 308.344 142.766L308.531 141.25C308.552 141.052 308.646 140.885 308.812 140.75C308.99 140.615 309.182 140.51 309.391 140.438C309.599 140.354 309.802 140.297 310 140.266C310.198 140.224 310.339 140.203 310.422 140.203C310.547 140.203 310.63 140.224 310.672 140.266C310.714 140.307 310.734 140.391 310.734 140.516C310.734 140.672 310.688 140.99 310.594 141.469C310.51 141.938 310.417 142.542 310.312 143.281C310.219 144.01 310.125 144.87 310.031 145.859C309.948 146.849 309.906 147.938 309.906 149.125ZM308.188 145C308.188 144.521 308.115 144.052 307.969 143.594C307.823 143.125 307.625 142.714 307.375 142.359C307.125 141.995 306.833 141.703 306.5 141.484C306.177 141.266 305.833 141.156 305.469 141.156C305.021 141.156 304.599 141.286 304.203 141.547C303.818 141.797 303.479 142.156 303.188 142.625C302.906 143.083 302.682 143.641 302.516 144.297C302.349 144.943 302.266 145.656 302.266 146.438C302.266 148 302.51 149.193 303 150.016C303.49 150.828 304.141 151.234 304.953 151.234C305.307 151.234 305.672 151.094 306.047 150.812C306.432 150.521 306.781 150.109 307.094 149.578C307.417 149.036 307.677 148.38 307.875 147.609C308.083 146.839 308.188 145.969 308.188 145ZM320.5 149.609C320.448 149.693 320.37 149.839 320.266 150.047C320.172 150.245 320.047 150.469 319.891 150.719C319.745 150.969 319.568 151.229 319.359 151.5C319.161 151.771 318.932 152.016 318.672 152.234C318.411 152.453 318.12 152.635 317.797 152.781C317.484 152.927 317.135 153 316.75 153C316.448 153 316.135 152.938 315.812 152.812C315.49 152.688 315.188 152.458 314.906 152.125C314.635 151.792 314.411 151.339 314.234 150.766C314.057 150.182 313.969 149.432 313.969 148.516C313.969 147.641 314 146.766 314.062 145.891C314.125 145.005 314.198 144.198 314.281 143.469C314.375 142.74 314.464 142.13 314.547 141.641C314.63 141.151 314.693 140.854 314.734 140.75C314.776 140.656 314.859 140.573 314.984 140.5C315.109 140.427 315.25 140.37 315.406 140.328C315.573 140.286 315.74 140.255 315.906 140.234C316.083 140.214 316.234 140.203 316.359 140.203C316.526 140.203 316.656 140.245 316.75 140.328C316.854 140.411 316.906 140.552 316.906 140.75C316.906 140.844 316.885 141.031 316.844 141.312C316.812 141.583 316.771 141.917 316.719 142.312C316.667 142.708 316.609 143.146 316.547 143.625C316.495 144.104 316.443 144.594 316.391 145.094C316.339 145.583 316.292 146.073 316.25 146.562C316.219 147.042 316.203 147.479 316.203 147.875C316.203 149.01 316.323 149.854 316.562 150.406C316.812 150.958 317.219 151.234 317.781 151.234C318.26 151.234 318.745 150.885 319.234 150.188C319.734 149.49 320.167 148.474 320.531 147.141C320.583 146.578 320.63 145.979 320.672 145.344C320.724 144.698 320.771 144.089 320.812 143.516C320.854 142.932 320.891 142.411 320.922 141.953C320.964 141.495 321 141.167 321.031 140.969C321.062 140.823 321.146 140.703 321.281 140.609C321.417 140.505 321.568 140.427 321.734 140.375C321.911 140.312 322.078 140.271 322.234 140.25C322.401 140.219 322.526 140.203 322.609 140.203C322.786 140.203 322.906 140.245 322.969 140.328C323.042 140.401 323.078 140.521 323.078 140.688C323.078 140.833 323.062 141.115 323.031 141.531C323.01 141.938 322.979 142.417 322.938 142.969C322.906 143.51 322.87 144.094 322.828 144.719C322.786 145.344 322.745 145.948 322.703 146.531C322.672 147.104 322.641 147.625 322.609 148.094C322.589 148.562 322.578 148.917 322.578 149.156C322.578 149.865 322.615 150.422 322.688 150.828C322.771 151.234 322.948 151.438 323.219 151.438C323.417 151.438 323.63 151.312 323.859 151.062C324.099 150.802 324.354 150.443 324.625 149.984C324.906 149.526 325.208 148.984 325.531 148.359C325.854 147.724 326.203 147.031 326.578 146.281L326.734 145.953L327.375 146.438L327.219 146.766C326.719 147.755 326.276 148.641 325.891 149.422C325.516 150.193 325.156 150.844 324.812 151.375C324.469 151.906 324.12 152.312 323.766 152.594C323.411 152.865 323.016 153 322.578 153C322.172 153 321.833 152.922 321.562 152.766C321.302 152.609 321.094 152.385 320.938 152.094C320.781 151.802 320.667 151.448 320.594 151.031C320.531 150.615 320.5 150.141 320.5 149.609ZM326.688 147.875C326.688 146.771 326.729 145.661 326.812 144.547C326.896 143.432 327.005 142.302 327.141 141.156H325.719L325.891 140.203H327.266C327.411 139.141 327.557 138.078 327.703 137.016C327.859 135.943 328 134.87 328.125 133.797H329.719C329.698 134.026 329.667 134.359 329.625 134.797C329.594 135.224 329.552 135.724 329.5 136.297C329.458 136.859 329.417 137.479 329.375 138.156C329.333 138.823 329.292 139.505 329.25 140.203H332.281L332.125 141.156H329.188C329.146 141.75 329.109 142.333 329.078 142.906C329.047 143.479 329.016 144.026 328.984 144.547C328.964 145.057 328.948 145.531 328.938 145.969C328.927 146.396 328.922 146.766 328.922 147.078C328.922 147.87 328.943 148.531 328.984 149.062C329.036 149.594 329.109 150.021 329.203 150.344C329.307 150.667 329.432 150.896 329.578 151.031C329.734 151.167 329.911 151.234 330.109 151.234C330.37 151.234 330.656 151.104 330.969 150.844C331.292 150.573 331.625 150.214 331.969 149.766C332.312 149.318 332.661 148.797 333.016 148.203C333.37 147.599 333.714 146.958 334.047 146.281L334.203 145.953L334.844 146.438L334.688 146.766C334.208 147.734 333.729 148.604 333.25 149.375C332.781 150.146 332.318 150.802 331.859 151.344C331.401 151.875 330.953 152.286 330.516 152.578C330.078 152.859 329.656 153 329.25 153C328.844 153 328.479 152.906 328.156 152.719C327.844 152.531 327.578 152.234 327.359 151.828C327.141 151.411 326.974 150.88 326.859 150.234C326.745 149.589 326.688 148.802 326.688 147.875ZM335.203 140.641C335.245 140.536 335.344 140.453 335.5 140.391C335.656 140.328 335.823 140.286 336 140.266C336.177 140.234 336.344 140.219 336.5 140.219C336.656 140.208 336.76 140.203 336.812 140.203C336.969 140.203 337.068 140.245 337.109 140.328C337.161 140.401 337.188 140.521 337.188 140.688C337.188 140.771 337.161 140.958 337.109 141.25C337.057 141.531 336.99 141.885 336.906 142.312C336.833 142.74 336.75 143.224 336.656 143.766C336.573 144.307 336.49 144.865 336.406 145.438C336.333 146.01 336.271 146.594 336.219 147.188C336.167 147.771 336.141 148.323 336.141 148.844C336.141 149.75 336.292 150.432 336.594 150.891C336.896 151.339 337.245 151.562 337.641 151.562C338.328 151.562 338.938 151.057 339.469 150.047C340 149.036 340.552 147.557 341.125 145.609V141.062C341.125 140.885 341.203 140.745 341.359 140.641C341.526 140.526 341.714 140.438 341.922 140.375C342.13 140.312 342.333 140.271 342.531 140.25C342.729 140.219 342.87 140.203 342.953 140.203C343.276 140.203 343.438 140.365 343.438 140.688C343.438 140.802 343.427 140.995 343.406 141.266C343.396 141.526 343.38 141.839 343.359 142.203C343.339 142.557 343.318 142.953 343.297 143.391C343.286 143.818 343.281 144.25 343.281 144.688V151.047C343.469 150.807 343.703 150.49 343.984 150.094C344.276 149.698 344.573 149.276 344.875 148.828C345.188 148.38 345.484 147.932 345.766 147.484C346.057 147.036 346.292 146.635 346.469 146.281L346.641 145.953L347.281 146.438L347.109 146.766C346.891 147.203 346.63 147.656 346.328 148.125C346.026 148.594 345.703 149.068 345.359 149.547C345.026 150.016 344.677 150.484 344.312 150.953C343.958 151.411 343.615 151.849 343.281 152.266V155.719C343.281 156.677 343.193 157.49 343.016 158.156C342.849 158.833 342.615 159.38 342.312 159.797C342.01 160.224 341.656 160.531 341.25 160.719C340.844 160.906 340.401 161 339.922 161C339.62 161 339.339 160.953 339.078 160.859C338.828 160.766 338.609 160.625 338.422 160.438C338.234 160.26 338.089 160.042 337.984 159.781C337.88 159.531 337.828 159.245 337.828 158.922C337.828 158.453 337.911 157.984 338.078 157.516C338.255 157.047 338.495 156.562 338.797 156.062C339.109 155.562 339.469 155.047 339.875 154.516C340.281 153.995 340.719 153.448 341.188 152.875V148.141C340.927 148.849 340.646 149.505 340.344 150.109C340.042 150.703 339.714 151.214 339.359 151.641C339.005 152.068 338.625 152.401 338.219 152.641C337.812 152.88 337.375 153 336.906 153C336.573 153 336.229 152.948 335.875 152.844C335.531 152.729 335.208 152.526 334.906 152.234C334.615 151.943 334.375 151.552 334.188 151.062C334 150.562 333.906 149.927 333.906 149.156C333.906 148.281 333.958 147.391 334.062 146.484C334.167 145.578 334.286 144.734 334.422 143.953C334.568 143.172 334.714 142.49 334.859 141.906C335.005 141.312 335.12 140.891 335.203 140.641ZM339.75 160.047C339.917 160.047 340.083 160.01 340.25 159.938C340.427 159.875 340.583 159.724 340.719 159.484C340.854 159.245 340.964 158.891 341.047 158.422C341.141 157.953 341.188 157.318 341.188 156.516V154.156C340.833 154.594 340.505 155.016 340.203 155.422C339.911 155.839 339.656 156.24 339.438 156.625C339.219 157.021 339.047 157.401 338.922 157.766C338.797 158.13 338.734 158.484 338.734 158.828C338.734 159.151 338.823 159.432 339 159.672C339.177 159.922 339.427 160.047 339.75 160.047ZM374.031 144.266C374.427 144.266 374.75 144.156 375 143.938C375.25 143.719 375.375 143.474 375.375 143.203C375.375 143.068 375.333 142.932 375.25 142.797C375.177 142.661 375.057 142.542 374.891 142.438C374.734 142.333 374.521 142.25 374.25 142.188C373.99 142.125 373.672 142.094 373.297 142.094C372.807 142.094 372.333 142.151 371.875 142.266C371.417 142.38 370.953 142.526 370.484 142.703C370.922 143.141 371.271 143.651 371.531 144.234C371.792 144.807 371.922 145.469 371.922 146.219C371.922 147.312 371.703 148.281 371.266 149.125C370.839 149.969 370.26 150.677 369.531 151.25C368.812 151.823 367.979 152.26 367.031 152.562C366.083 152.854 365.099 153 364.078 153C363.057 153 362.062 152.849 361.094 152.547C360.125 152.245 359.255 151.792 358.484 151.188C357.724 150.583 357.109 149.823 356.641 148.906C356.182 147.99 355.953 146.922 355.953 145.703C355.953 144.578 356.13 143.594 356.484 142.75C356.849 141.896 357.312 141.167 357.875 140.562C358.448 139.948 359.078 139.443 359.766 139.047C360.453 138.651 361.125 138.344 361.781 138.125C361.375 137.917 360.974 137.661 360.578 137.359C360.193 137.057 359.849 136.719 359.547 136.344C359.245 135.969 359 135.557 358.812 135.109C358.635 134.651 358.547 134.161 358.547 133.641C358.547 132.911 358.703 132.25 359.016 131.656C359.328 131.062 359.734 130.557 360.234 130.141C360.745 129.724 361.323 129.406 361.969 129.188C362.615 128.958 363.276 128.844 363.953 128.844C364.766 128.844 365.464 128.938 366.047 129.125C366.63 129.302 367.104 129.536 367.469 129.828C367.833 130.109 368.099 130.432 368.266 130.797C368.443 131.161 368.531 131.521 368.531 131.875C368.531 132.177 368.474 132.469 368.359 132.75C368.255 133.031 368.099 133.281 367.891 133.5C367.693 133.708 367.448 133.875 367.156 134C366.865 134.125 366.542 134.188 366.188 134.188C365.917 134.188 365.672 134.141 365.453 134.047C365.234 133.943 365.042 133.828 364.875 133.703C364.708 133.578 364.573 133.453 364.469 133.328C364.365 133.203 364.297 133.115 364.266 133.062L364.781 132.75C364.833 132.802 364.906 132.865 365 132.938C365.104 133.01 365.219 133.083 365.344 133.156C365.469 133.219 365.599 133.276 365.734 133.328C365.88 133.37 366.031 133.391 366.188 133.391C366.604 133.391 366.938 133.24 367.188 132.938C367.438 132.635 367.562 132.281 367.562 131.875C367.562 131.635 367.505 131.396 367.391 131.156C367.286 130.906 367.12 130.682 366.891 130.484C366.661 130.276 366.365 130.109 366 129.984C365.646 129.859 365.219 129.797 364.719 129.797C364.062 129.797 363.484 129.917 362.984 130.156C362.484 130.396 362.068 130.719 361.734 131.125C361.401 131.521 361.146 131.974 360.969 132.484C360.802 132.984 360.719 133.5 360.719 134.031C360.719 134.427 360.766 134.812 360.859 135.188C360.964 135.562 361.109 135.917 361.297 136.25C361.495 136.573 361.74 136.87 362.031 137.141C362.333 137.401 362.688 137.609 363.094 137.766C363.302 137.714 363.5 137.682 363.688 137.672C363.875 137.651 364.047 137.641 364.203 137.641C364.474 137.641 364.688 137.682 364.844 137.766C365 137.839 365.078 137.948 365.078 138.094C365.078 138.312 364.99 138.479 364.812 138.594C364.635 138.708 364.401 138.766 364.109 138.766C363.932 138.766 363.74 138.75 363.531 138.719C363.333 138.688 363.12 138.635 362.891 138.562C362.172 138.729 361.542 139.021 361 139.438C360.458 139.844 360.005 140.333 359.641 140.906C359.276 141.479 359 142.109 358.812 142.797C358.635 143.474 358.547 144.167 358.547 144.875C358.547 145.729 358.677 146.573 358.938 147.406C359.208 148.24 359.615 148.984 360.156 149.641C360.698 150.297 361.37 150.828 362.172 151.234C362.974 151.641 363.917 151.844 365 151.844C365.76 151.844 366.495 151.724 367.203 151.484C367.922 151.245 368.552 150.891 369.094 150.422C369.646 149.953 370.089 149.375 370.422 148.688C370.755 148 370.922 147.208 370.922 146.312C370.922 145.594 370.802 144.964 370.562 144.422C370.323 143.87 370.005 143.401 369.609 143.016C369.182 143.193 368.755 143.37 368.328 143.547C367.911 143.724 367.479 143.885 367.031 144.031C366.594 144.177 366.146 144.297 365.688 144.391C365.229 144.474 364.755 144.516 364.266 144.516C363.891 144.516 363.562 144.469 363.281 144.375C363.01 144.281 362.781 144.161 362.594 144.016C362.417 143.859 362.281 143.682 362.188 143.484C362.104 143.286 362.062 143.078 362.062 142.859C362.062 142.526 362.151 142.229 362.328 141.969C362.516 141.708 362.766 141.49 363.078 141.312C363.391 141.125 363.755 140.984 364.172 140.891C364.599 140.797 365.047 140.75 365.516 140.75C366.016 140.75 366.531 140.807 367.062 140.922C367.604 141.026 368.135 141.193 368.656 141.422C369.312 141.099 370.005 140.812 370.734 140.562C371.464 140.302 372.255 140.172 373.109 140.172C373.682 140.172 374.177 140.25 374.594 140.406C375.01 140.552 375.354 140.745 375.625 140.984C375.906 141.224 376.109 141.495 376.234 141.797C376.37 142.099 376.438 142.401 376.438 142.703C376.438 142.984 376.385 143.255 376.281 143.516C376.177 143.776 376.021 144.01 375.812 144.219C375.615 144.427 375.37 144.594 375.078 144.719C374.786 144.844 374.458 144.906 374.094 144.906L374.031 144.266ZM365.516 141.484C364.922 141.484 364.427 141.568 364.031 141.734C363.635 141.891 363.438 142.104 363.438 142.375C363.438 142.542 363.531 142.682 363.719 142.797C363.906 142.901 364.208 142.953 364.625 142.953C365.104 142.953 365.599 142.849 366.109 142.641C366.63 142.432 367.182 142.182 367.766 141.891C367.37 141.745 366.979 141.641 366.594 141.578C366.208 141.516 365.849 141.484 365.516 141.484ZM408.047 153.953V141.859C406.193 141.776 404.406 141.677 402.688 141.562C400.969 141.438 399.391 141.323 397.953 141.219V144.719C397.953 146.125 397.818 147.349 397.547 148.391C397.286 149.422 396.87 150.281 396.297 150.969C395.724 151.656 394.995 152.167 394.109 152.5C393.224 152.833 392.161 153 390.922 153C390.047 153 389.229 152.87 388.469 152.609C387.708 152.339 387.047 151.958 386.484 151.469C385.922 150.979 385.479 150.391 385.156 149.703C384.844 149.016 384.688 148.25 384.688 147.406C384.688 146.49 384.896 145.599 385.312 144.734C385.729 143.859 386.339 143.089 387.141 142.422C387.953 141.755 388.953 141.219 390.141 140.812C391.339 140.406 392.719 140.203 394.281 140.203H395.562V137.578C395.562 136.745 395.578 135.948 395.609 135.188C395.651 134.417 395.75 133.672 395.906 132.953C396.062 132.234 396.302 131.536 396.625 130.859C396.948 130.182 397.391 129.51 397.953 128.844C397.38 129.271 396.755 129.557 396.078 129.703C395.411 129.849 394.729 129.922 394.031 129.922C393.552 129.922 393.068 129.901 392.578 129.859C392.099 129.807 391.625 129.755 391.156 129.703C390.688 129.651 390.229 129.604 389.781 129.562C389.344 129.51 388.922 129.484 388.516 129.484C388.078 129.484 387.698 129.542 387.375 129.656C387.052 129.76 386.786 129.911 386.578 130.109C386.37 130.297 386.214 130.516 386.109 130.766C386.005 131.016 385.953 131.281 385.953 131.562C385.953 131.844 386.021 132.12 386.156 132.391C386.292 132.651 386.49 132.891 386.75 133.109C387.01 133.318 387.328 133.484 387.703 133.609C388.089 133.734 388.521 133.797 389 133.797C389.438 133.797 389.833 133.755 390.188 133.672C390.542 133.589 390.844 133.495 391.094 133.391C391.385 133.276 391.646 133.135 391.875 132.969L392.203 133.641C391.922 133.828 391.609 133.99 391.266 134.125C390.974 134.24 390.63 134.349 390.234 134.453C389.849 134.547 389.438 134.594 389 134.594C388.396 134.594 387.849 134.51 387.359 134.344C386.87 134.167 386.448 133.932 386.094 133.641C385.75 133.339 385.479 132.984 385.281 132.578C385.094 132.161 385 131.714 385 131.234C385 130.672 385.104 130.177 385.312 129.75C385.521 129.312 385.802 128.943 386.156 128.641C386.521 128.339 386.943 128.109 387.422 127.953C387.911 127.797 388.438 127.719 389 127.719C389.573 127.719 390.141 127.755 390.703 127.828C391.266 127.901 391.823 127.984 392.375 128.078C392.938 128.161 393.49 128.24 394.031 128.312C394.583 128.385 395.125 128.422 395.656 128.422C396.188 128.422 396.708 128.375 397.219 128.281C397.729 128.177 398.245 127.99 398.766 127.719L399.406 128.203C399.167 128.516 398.958 128.865 398.781 129.25C398.604 129.635 398.453 130.104 398.328 130.656C398.203 131.208 398.109 131.87 398.047 132.641C397.984 133.401 397.953 134.323 397.953 135.406V140.203H408.047V135.719C408.047 134.708 408.073 133.812 408.125 133.031C408.177 132.24 408.25 131.536 408.344 130.922C408.448 130.297 408.573 129.745 408.719 129.266C408.865 128.776 409.031 128.333 409.219 127.938C409.417 127.542 409.63 127.172 409.859 126.828C410.089 126.484 410.333 126.141 410.594 125.797L411.234 126.281C411.078 126.604 410.938 126.958 410.812 127.344C410.698 127.719 410.599 128.208 410.516 128.812C410.443 129.406 410.385 130.156 410.344 131.062C410.302 131.958 410.281 133.083 410.281 134.438V140.203H413L412.516 141.953C412.151 141.953 411.776 141.953 411.391 141.953C411.016 141.953 410.646 141.943 410.281 141.922V153.641L408.047 153.953ZM391.234 152.203C391.953 152.203 392.583 152.104 393.125 151.906C393.667 151.708 394.115 151.38 394.469 150.922C394.833 150.464 395.104 149.859 395.281 149.109C395.469 148.359 395.562 147.427 395.562 146.312V141.062C395.24 141.042 394.922 141.026 394.609 141.016C394.307 141.005 394.036 141 393.797 141C392.891 141 392.089 141.099 391.391 141.297C390.693 141.484 390.083 141.74 389.562 142.062C389.042 142.385 388.599 142.76 388.234 143.188C387.88 143.615 387.594 144.068 387.375 144.547C387.156 145.016 387 145.5 386.906 146C386.812 146.49 386.766 146.958 386.766 147.406C386.766 148.281 386.901 149.026 387.172 149.641C387.443 150.245 387.792 150.74 388.219 151.125C388.646 151.5 389.125 151.776 389.656 151.953C390.188 152.12 390.714 152.203 391.234 152.203ZM418.734 151.234C419.099 151.234 419.469 151.141 419.844 150.953C420.229 150.766 420.615 150.474 421 150.078C421.396 149.682 421.802 149.172 422.219 148.547C422.635 147.911 423.062 147.156 423.5 146.281L423.656 145.953L424.297 146.438L424.141 146.766C423.578 147.88 423.016 148.833 422.453 149.625C421.901 150.417 421.354 151.062 420.812 151.562C420.281 152.062 419.755 152.427 419.234 152.656C418.714 152.885 418.214 153 417.734 153C417.057 153 416.453 152.859 415.922 152.578C415.391 152.297 414.943 151.917 414.578 151.438C414.214 150.948 413.938 150.385 413.75 149.75C413.552 149.104 413.453 148.427 413.453 147.719C413.453 146.594 413.609 145.573 413.922 144.656C414.224 143.729 414.63 142.938 415.141 142.281C415.661 141.625 416.25 141.115 416.906 140.75C417.562 140.385 418.245 140.203 418.953 140.203C419.672 140.203 420.219 140.385 420.594 140.75C420.979 141.115 421.172 141.573 421.172 142.125C421.172 142.656 421.021 143.156 420.719 143.625C420.417 144.083 420.005 144.536 419.484 144.984C418.974 145.422 418.38 145.859 417.703 146.297C417.026 146.724 416.312 147.167 415.562 147.625C415.635 148.167 415.76 148.661 415.938 149.109C416.115 149.547 416.339 149.927 416.609 150.25C416.88 150.562 417.193 150.807 417.547 150.984C417.901 151.151 418.297 151.234 418.734 151.234ZM419.219 142.594C419.219 142.177 419.104 141.849 418.875 141.609C418.656 141.37 418.385 141.25 418.062 141.25C417.792 141.25 417.505 141.349 417.203 141.547C416.901 141.734 416.625 142.042 416.375 142.469C416.125 142.885 415.917 143.422 415.75 144.078C415.583 144.734 415.5 145.531 415.5 146.469V146.828C415.854 146.641 416.245 146.396 416.672 146.094C417.109 145.781 417.516 145.438 417.891 145.062C418.266 144.688 418.578 144.292 418.828 143.875C419.089 143.448 419.219 143.021 419.219 142.594ZM433.125 149.125C433.125 149.719 433.177 150.219 433.281 150.625C433.385 151.031 433.568 151.234 433.828 151.234C433.984 151.234 434.151 151.161 434.328 151.016C434.516 150.859 434.729 150.609 434.969 150.266C435.208 149.922 435.479 149.479 435.781 148.938C436.094 148.385 436.448 147.714 436.844 146.922L437.312 145.953L437.953 146.438L437.484 147.406C437.047 148.281 436.635 149.068 436.25 149.766C435.875 150.453 435.516 151.036 435.172 151.516C434.828 151.995 434.49 152.365 434.156 152.625C433.833 152.875 433.51 153 433.188 153C432.844 153 432.552 152.906 432.312 152.719C432.083 152.531 431.891 152.276 431.734 151.953C431.578 151.62 431.458 151.24 431.375 150.812C431.292 150.375 431.234 149.911 431.203 149.422C430.953 149.922 430.677 150.391 430.375 150.828C430.073 151.255 429.755 151.63 429.422 151.953C429.099 152.276 428.76 152.531 428.406 152.719C428.052 152.906 427.698 153 427.344 153C426.823 153 426.318 152.891 425.828 152.672C425.339 152.453 424.901 152.12 424.516 151.672C424.141 151.224 423.839 150.661 423.609 149.984C423.38 149.297 423.266 148.49 423.266 147.562C423.266 146.479 423.406 145.49 423.688 144.594C423.969 143.688 424.349 142.911 424.828 142.266C425.307 141.609 425.859 141.104 426.484 140.75C427.109 140.385 427.766 140.203 428.453 140.203C428.87 140.203 429.255 140.297 429.609 140.484C429.964 140.672 430.271 140.901 430.531 141.172C430.802 141.432 431.026 141.714 431.203 142.016C431.38 142.307 431.5 142.557 431.562 142.766L431.75 141.25C431.771 141.052 431.865 140.885 432.031 140.75C432.208 140.615 432.401 140.51 432.609 140.438C432.818 140.354 433.021 140.297 433.219 140.266C433.417 140.224 433.557 140.203 433.641 140.203C433.766 140.203 433.849 140.224 433.891 140.266C433.932 140.307 433.953 140.391 433.953 140.516C433.953 140.672 433.906 140.99 433.812 141.469C433.729 141.938 433.635 142.542 433.531 143.281C433.438 144.01 433.344 144.87 433.25 145.859C433.167 146.849 433.125 147.938 433.125 149.125ZM431.406 145C431.406 144.521 431.333 144.052 431.188 143.594C431.042 143.125 430.844 142.714 430.594 142.359C430.344 141.995 430.052 141.703 429.719 141.484C429.396 141.266 429.052 141.156 428.688 141.156C428.24 141.156 427.818 141.286 427.422 141.547C427.036 141.797 426.698 142.156 426.406 142.625C426.125 143.083 425.901 143.641 425.734 144.297C425.568 144.943 425.484 145.656 425.484 146.438C425.484 148 425.729 149.193 426.219 150.016C426.708 150.828 427.359 151.234 428.172 151.234C428.526 151.234 428.891 151.094 429.266 150.812C429.651 150.521 430 150.109 430.312 149.578C430.635 149.036 430.896 148.38 431.094 147.609C431.302 146.839 431.406 145.969 431.406 145ZM440.672 151.016C440.859 151.016 441.073 150.896 441.312 150.656C441.562 150.406 441.828 150.068 442.109 149.641C442.391 149.214 442.688 148.714 443 148.141C443.312 147.568 443.635 146.948 443.969 146.281L444.125 145.953L444.766 146.438L444.609 146.766C444.057 147.87 443.562 148.818 443.125 149.609C442.698 150.391 442.297 151.036 441.922 151.547C441.547 152.047 441.188 152.417 440.844 152.656C440.51 152.885 440.167 153 439.812 153C439.344 153 438.938 152.849 438.594 152.547C438.26 152.234 437.979 151.719 437.75 151C437.531 150.271 437.37 149.312 437.266 148.125C437.151 146.938 437.094 145.469 437.094 143.719C437.094 141.24 437.198 139.115 437.406 137.344C437.615 135.562 437.896 134.104 438.25 132.969C438.615 131.823 439.031 130.984 439.5 130.453C439.979 129.911 440.479 129.641 441 129.641C441.312 129.641 441.573 129.771 441.781 130.031C442 130.281 442.109 130.74 442.109 131.406C442.109 131.927 442.068 132.521 441.984 133.188C441.901 133.854 441.792 134.568 441.656 135.328C441.521 136.089 441.359 136.88 441.172 137.703C440.984 138.516 440.786 139.328 440.578 140.141C440.37 140.943 440.156 141.734 439.938 142.516C439.719 143.286 439.505 144.01 439.297 144.688C439.359 145.969 439.427 147.021 439.5 147.844C439.583 148.656 439.677 149.297 439.781 149.766C439.896 150.234 440.026 150.562 440.172 150.75C440.318 150.927 440.484 151.016 440.672 151.016ZM441.094 131.781C441.094 131.562 441.068 131.391 441.016 131.266C440.964 131.141 440.88 131.078 440.766 131.078C440.651 131.078 440.536 131.24 440.422 131.562C440.307 131.885 440.193 132.323 440.078 132.875C439.974 133.427 439.875 134.068 439.781 134.797C439.698 135.526 439.62 136.302 439.547 137.125C439.474 137.938 439.417 138.771 439.375 139.625C439.333 140.479 439.307 141.302 439.297 142.094C439.547 141.177 439.776 140.24 439.984 139.281C440.203 138.312 440.396 137.375 440.562 136.469C440.729 135.562 440.859 134.708 440.953 133.906C441.047 133.094 441.094 132.385 441.094 131.781ZM444.062 147.875C444.062 146.771 444.104 145.661 444.188 144.547C444.271 143.432 444.38 142.302 444.516 141.156H443.094L443.266 140.203H444.641C444.786 139.141 444.932 138.078 445.078 137.016C445.234 135.943 445.375 134.87 445.5 133.797H447.094C447.073 134.026 447.042 134.359 447 134.797C446.969 135.224 446.927 135.724 446.875 136.297C446.833 136.859 446.792 137.479 446.75 138.156C446.708 138.823 446.667 139.505 446.625 140.203H449.656L449.5 141.156H446.562C446.521 141.75 446.484 142.333 446.453 142.906C446.422 143.479 446.391 144.026 446.359 144.547C446.339 145.057 446.323 145.531 446.312 145.969C446.302 146.396 446.297 146.766 446.297 147.078C446.297 147.87 446.318 148.531 446.359 149.062C446.411 149.594 446.484 150.021 446.578 150.344C446.682 150.667 446.807 150.896 446.953 151.031C447.109 151.167 447.286 151.234 447.484 151.234C447.745 151.234 448.031 151.104 448.344 150.844C448.667 150.573 449 150.214 449.344 149.766C449.688 149.318 450.036 148.797 450.391 148.203C450.745 147.599 451.089 146.958 451.422 146.281L451.578 145.953L452.219 146.438L452.062 146.766C451.583 147.734 451.104 148.604 450.625 149.375C450.156 150.146 449.693 150.802 449.234 151.344C448.776 151.875 448.328 152.286 447.891 152.578C447.453 152.859 447.031 153 446.625 153C446.219 153 445.854 152.906 445.531 152.719C445.219 152.531 444.953 152.234 444.734 151.828C444.516 151.411 444.349 150.88 444.234 150.234C444.12 149.589 444.062 148.802 444.062 147.875ZM453.672 147.562C453.672 148.073 453.656 148.615 453.625 149.188C453.594 149.75 453.526 150.318 453.422 150.891C453.328 151.453 453.188 152.005 453 152.547C452.812 153.078 452.557 153.573 452.234 154.031L451.047 153.672C451.307 152.797 451.464 151.88 451.516 150.922C451.568 149.964 451.594 149.005 451.594 148.047C451.594 147.005 451.562 145.964 451.5 144.922C451.427 143.88 451.349 142.839 451.266 141.797C451.172 140.745 451.094 139.688 451.031 138.625C450.958 137.562 450.922 136.49 450.922 135.406C450.922 134.75 450.995 134.177 451.141 133.688C451.276 133.198 451.458 132.792 451.688 132.469C451.917 132.146 452.172 131.906 452.453 131.75C452.734 131.583 453.016 131.5 453.297 131.5C453.693 131.5 454.005 131.641 454.234 131.922C454.474 132.203 454.651 132.583 454.766 133.062C454.88 133.542 454.938 134.099 454.938 134.734C454.948 135.37 454.922 136.042 454.859 136.75C454.797 137.458 454.708 138.182 454.594 138.922C454.479 139.661 454.354 140.38 454.219 141.078C454.083 141.776 453.948 142.427 453.812 143.031C453.688 143.635 453.578 144.151 453.484 144.578C453.484 144.661 453.49 144.75 453.5 144.844C453.51 144.927 453.516 145.01 453.516 145.094C453.734 144.604 454 144.078 454.312 143.516C454.635 142.943 454.995 142.411 455.391 141.922C455.797 141.432 456.234 141.026 456.703 140.703C457.182 140.37 457.688 140.203 458.219 140.203C459 140.203 459.589 140.464 459.984 140.984C460.38 141.505 460.578 142.255 460.578 143.234C460.578 143.911 460.542 144.562 460.469 145.188C460.396 145.812 460.312 146.417 460.219 147C460.135 147.573 460.057 148.13 459.984 148.672C459.911 149.214 459.875 149.75 459.875 150.281C459.875 150.917 460.036 151.234 460.359 151.234C460.516 151.234 460.714 151.099 460.953 150.828C461.203 150.547 461.479 150.177 461.781 149.719C462.083 149.26 462.401 148.734 462.734 148.141C463.068 147.547 463.396 146.927 463.719 146.281L463.875 145.953L464.516 146.438L464.359 146.766C463.995 147.484 463.615 148.214 463.219 148.953C462.823 149.693 462.417 150.365 462 150.969C461.583 151.562 461.156 152.052 460.719 152.438C460.292 152.812 459.865 153 459.438 153C459.25 153 459.057 152.969 458.859 152.906C458.672 152.844 458.5 152.734 458.344 152.578C458.188 152.422 458.057 152.214 457.953 151.953C457.849 151.682 457.797 151.339 457.797 150.922C457.797 150.505 457.818 150.052 457.859 149.562C457.901 149.073 457.948 148.573 458 148.062C458.062 147.542 458.13 147.026 458.203 146.516C458.276 146.005 458.339 145.526 458.391 145.078C458.453 144.63 458.505 144.229 458.547 143.875C458.589 143.51 458.609 143.214 458.609 142.984C458.609 142.391 458.526 141.958 458.359 141.688C458.193 141.417 457.943 141.281 457.609 141.281C457.193 141.281 456.792 141.464 456.406 141.828C456.021 142.193 455.656 142.651 455.312 143.203C454.979 143.745 454.672 144.333 454.391 144.969C454.109 145.594 453.859 146.172 453.641 146.703C453.641 146.859 453.646 147.016 453.656 147.172C453.667 147.318 453.672 147.448 453.672 147.562ZM452.656 134.188C452.656 134.615 452.672 135.135 452.703 135.75C452.745 136.354 452.792 137.01 452.844 137.719C452.906 138.427 452.969 139.167 453.031 139.938C453.104 140.708 453.177 141.469 453.25 142.219C453.365 141.635 453.479 140.995 453.594 140.297C453.708 139.589 453.807 138.88 453.891 138.172C453.984 137.453 454.052 136.755 454.094 136.078C454.146 135.401 454.156 134.802 454.125 134.281C454.104 133.76 454.036 133.344 453.922 133.031C453.807 132.708 453.641 132.547 453.422 132.547C453.224 132.547 453.047 132.667 452.891 132.906C452.734 133.146 452.656 133.573 452.656 134.188Z" fill="#5DB67D"/>
<defs>
<clipPath id="clip0_708_20">
<rect width="300" height="300" fill="white"/>
</clipPath>
</defs>
</svg>
