<svg width="1050" height="751" viewBox="0 0 1050 751" fill="none" xmlns="http://www.w3.org/2000/svg">
<g clip-path="url(#clip0_712_40)">
<path opacity="0.1" d="M525 750.87C814.949 750.87 1050 736.095 1050 717.87C1050 699.645 814.949 684.87 525 684.87C235.051 684.87 0 699.645 0 717.87C0 736.095 235.051 750.87 525 750.87Z" fill="#E6AF25"/>
<path d="M967.65 693.43C967.658 696.038 967.389 698.639 966.85 701.19C966.75 701.67 966.64 702.19 966.53 702.6C963.69 713.99 955.68 722.32 946.12 722.85C945.8 722.85 945.48 722.85 945.12 722.85C935.01 722.85 926.46 714.13 923.64 702.12C923.56 701.8 923.49 701.48 923.42 701.12C922.881 698.569 922.612 695.968 922.62 693.36C922.62 677.09 932.69 663.91 945.12 663.91C957.55 663.91 967.65 677.18 967.65 693.43Z" fill="#1C1917"/>
<path opacity="0.1" d="M967.65 693.43C967.658 696.038 967.389 698.639 966.85 701.19C966.75 701.67 966.64 702.19 966.53 702.6C966.19 702.6 965.86 702.6 965.53 702.6C963.054 702.467 960.592 702.132 958.17 701.6C956.024 702.263 953.831 702.765 951.61 703.1C949.907 703.356 948.191 703.517 946.47 703.58H944.73C942.67 703.58 940.612 703.443 938.57 703.17C935.268 702.729 932.025 701.924 928.9 700.77C927.189 701.34 925.446 701.807 923.68 702.17C923.6 701.85 923.53 701.53 923.46 701.17C922.921 698.619 922.652 696.018 922.66 693.41C922.66 677.14 932.73 663.96 945.16 663.96C957.59 663.96 967.65 677.18 967.65 693.43Z" fill="black"/>
<path d="M1015.65 638.58C1015.66 631.424 1013.98 624.366 1010.75 617.98L984.29 626.21L1007.52 612.55C1003.63 606.92 998.516 602.237 992.569 598.846C986.621 595.456 979.989 593.444 973.16 592.96C972.071 591.313 970.878 589.736 969.59 588.24L931.59 600.07L962.76 581.75C956.797 577.176 949.8 574.142 942.385 572.916C934.971 571.69 927.369 572.309 920.252 574.719C913.134 577.129 906.719 581.256 901.576 586.735C896.432 592.213 892.717 598.875 890.76 606.13L923.31 643.61L888 618.06C879.047 624.401 872.671 633.748 870.035 644.398C867.399 655.048 868.679 666.29 873.641 676.075C878.603 685.86 886.917 693.535 897.066 697.701C907.216 701.868 918.524 702.247 928.93 698.77C938.342 702.22 948.624 702.501 958.21 699.57C964.893 701.049 971.823 701.008 978.489 699.452C985.155 697.896 991.386 694.863 996.724 690.579C1002.06 686.294 1006.37 680.865 1009.33 674.694C1012.29 668.522 1013.83 661.765 1013.83 654.92C1013.83 653.92 1013.83 652.92 1013.73 651.92C1015.03 647.593 1015.67 643.097 1015.65 638.58Z" fill="#E6AF25"/>
<path opacity="0.1" d="M1014.86 647.07C1000.89 644.416 986.556 644.234 972.52 646.53C956.63 649.16 940.39 654.94 924.85 650.71C915.73 648.23 907.85 642.49 898.94 639.31C890.345 636.303 881.083 635.745 872.19 637.7C868.798 645.807 867.813 654.72 869.352 663.372C870.891 672.025 874.889 680.051 880.868 686.492C886.846 692.933 894.554 697.516 903.068 699.693C911.582 701.87 920.543 701.55 928.88 698.77C938.292 702.22 948.574 702.501 958.16 699.57C964.843 701.049 971.773 701.008 978.439 699.452C985.105 697.896 991.336 694.864 996.674 690.579C1002.01 686.294 1006.32 680.865 1009.28 674.694C1012.24 668.522 1013.78 661.765 1013.78 654.92C1013.78 653.92 1013.78 652.92 1013.68 651.92C1014.16 650.326 1014.56 648.707 1014.86 647.07Z" fill="black"/>
<path d="M698.6 171.97H692.87C691.605 171.97 690.58 172.995 690.58 174.26V254.7C690.58 255.965 691.605 256.99 692.87 256.99H698.6C699.865 256.99 700.89 255.965 700.89 254.7V174.26C700.89 172.995 699.865 171.97 698.6 171.97Z" fill="#1C1917"/>
<path d="M352.05 105.36H349.26C348.432 105.36 347.76 106.032 347.76 106.86V131.85C347.76 132.678 348.432 133.35 349.26 133.35H352.05C352.878 133.35 353.55 132.678 353.55 131.85V106.86C353.55 106.032 352.878 105.36 352.05 105.36Z" fill="#1C1917"/>
<path d="M352.38 156.61H349.24C348.307 156.61 347.55 157.367 347.55 158.3V203.64C347.55 204.573 348.307 205.33 349.24 205.33H352.38C353.313 205.33 354.07 204.573 354.07 203.64V158.3C354.07 157.367 353.313 156.61 352.38 156.61Z" fill="#1C1917"/>
<path d="M352.25 222.37H349.26C348.371 222.37 347.65 223.091 347.65 223.98V269.9C347.65 270.789 348.371 271.51 349.26 271.51H352.25C353.139 271.51 353.86 270.789 353.86 269.9V223.98C353.86 223.091 353.139 222.37 352.25 222.37Z" fill="#1C1917"/>
<path d="M660.45 12.87H386.73C367.019 12.87 351.04 28.849 351.04 48.56V678.55C351.04 698.261 367.019 714.24 386.73 714.24H660.45C680.161 714.24 696.14 698.261 696.14 678.55V48.56C696.14 28.849 680.161 12.87 660.45 12.87Z" fill="#1C1917"/>
<path d="M535.95 33.81H492.84C491.437 33.81 490.3 34.9472 490.3 36.35V41.06C490.3 42.4628 491.437 43.6 492.84 43.6H535.95C537.353 43.6 538.49 42.4628 538.49 41.06V36.35C538.49 34.9472 537.353 33.81 535.95 33.81Z" fill="#E6E8EC"/>
<path d="M551.33 44.25C554.395 44.25 556.88 41.7652 556.88 38.7C556.88 35.6348 554.395 33.15 551.33 33.15C548.265 33.15 545.78 35.6348 545.78 38.7C545.78 41.7652 548.265 44.25 551.33 44.25Z" fill="#E6E8EC"/>
<path d="M674.83 58.54V668.54C674.827 675.808 671.938 682.777 666.798 687.915C661.658 693.054 654.688 695.94 647.42 695.94H399.76C392.492 695.94 385.522 693.054 380.382 687.915C375.242 682.777 372.353 675.808 372.35 668.54V58.54C372.35 54.9405 373.059 51.3762 374.436 48.0507C375.814 44.7251 377.833 41.7035 380.378 39.1582C382.923 36.613 385.945 34.594 389.271 33.2165C392.596 31.839 396.16 31.13 399.76 31.13H436.82V35.89C436.831 41.8699 439.213 47.6015 443.444 51.8271C447.675 56.0527 453.41 58.4274 459.39 58.43H585.39C588.354 58.43 591.289 57.8462 594.027 56.712C596.765 55.5777 599.254 53.9152 601.349 51.8194C603.445 49.7236 605.108 47.2355 606.242 44.4972C607.376 41.7589 607.96 38.8239 607.96 35.86V31.13H647.47C654.731 31.1432 661.69 34.0369 666.819 39.1759C671.949 44.3148 674.83 51.2791 674.83 58.54Z" fill="#F5F5F4"/>
<path opacity="0.2" d="M677 310.43V517.86H674.83V518.07H372.35V264.65C374.29 262.437 376.257 260.14 378.25 257.76C420.73 207.03 478.47 193.68 523.16 192.28C553.78 191.28 584.26 197.61 613.36 210.18C628.73 216.82 650.79 224.1 674.83 224.82V303.24C676.3 307.43 677 310.43 677 310.43Z" fill="#E6AF25"/>
<path opacity="0.2" d="M677 310.43V517.86H372.35V381.98C383.2 379.25 398.35 368.75 417.79 339.74C441.04 305.03 472.63 295.9 497.08 294.94C513.83 294.28 530.51 298.58 546.43 307.19C564.34 316.86 598.86 328.52 625.09 294.67C654.09 257.24 669.51 288.11 674.83 303.24C676.3 307.43 677 310.43 677 310.43Z" fill="#E6AF25"/>
<path d="M633 479.87H415C408.373 479.87 403 485.243 403 491.87V543.87C403 550.497 408.373 555.87 415 555.87H633C639.627 555.87 645 550.497 645 543.87V491.87C645 485.243 639.627 479.87 633 479.87Z" fill="#E6AF25"/>
<path d="M134.06 683.72L153.2 672.43C150.612 668.009 147.303 664.051 143.41 660.72L107.3 671.99L135.6 655.35C128.595 651.512 120.711 649.565 112.724 649.7C104.737 649.835 96.9235 652.047 90.0515 656.119C83.1795 660.19 77.4862 665.981 73.5319 672.922C69.5777 679.862 67.4989 687.712 67.5 695.7C67.5 721.11 88.09 721.99 113.5 721.99C138.91 721.99 159.5 721.11 159.5 695.7C159.509 689.272 158.163 682.913 155.55 677.04L134.06 683.72Z" fill="#E6AF25"/>
<path opacity="0.1" d="M138.93 708.43C136.893 706.387 134.616 704.597 132.15 703.1C128.67 700.79 125.08 698.44 120.98 697.65C117.38 696.96 113.67 697.54 109.98 697.34C103.613 696.948 97.6208 694.199 93.17 689.63C90.56 686.93 88.5 683.63 85.36 681.54C81.97 679.32 77.67 678.84 73.65 679.39C72.485 679.566 71.3301 679.803 70.19 680.1C68.3853 685.106 67.4649 690.388 67.47 695.71C67.47 721.12 88.06 722 113.47 722C125.8 722 136.99 721.79 145.25 718.67L143.87 716.09C142.554 713.338 140.894 710.764 138.93 708.43Z" fill="black"/>
<path d="M228.24 582.3C226.778 583.582 225.652 585.203 224.96 587.02C223.25 592.36 228.03 597.6 228.49 603.19C228.85 607.63 226.49 611.77 225.15 616.03C223.638 621.322 223.736 626.944 225.431 632.18C227.127 637.416 230.343 642.029 234.67 645.43C235.591 646.212 236.679 646.773 237.85 647.07C238.816 647.186 239.796 647.105 240.73 646.829C241.663 646.554 242.531 646.092 243.28 645.47C245.602 643.781 247.373 641.443 248.37 638.75C249.2 636.104 249.647 633.353 249.7 630.58L250.41 619.88C251.15 608.71 251.82 597.19 249.1 586.22C248.21 582.62 246.56 574.35 242.4 573.85C238.24 573.35 231 579.6 228.24 582.3Z" fill="#1C1917"/>
<path d="M298 536.34C293.005 553.882 289.384 571.786 287.17 589.89C286.85 592.44 286.52 595.12 284.98 597.18C281.91 601.31 275.76 601.05 270.66 600.38C269.436 600.316 268.242 599.974 267.17 599.38C265.25 598.08 264.83 595.48 264.6 593.17C261.107 559.117 258.773 524.973 257.6 490.74C257.55 489.43 300.29 489.31 303.95 492.74C307.61 496.17 304.77 509 303.95 513.37C302.61 521.15 300.19 528.73 298 536.34Z" fill="#A0616A"/>
<path opacity="0.05" d="M298 536.34C293.005 553.882 289.384 571.786 287.17 589.89C286.85 592.44 286.52 595.12 284.98 597.18C281.91 601.31 275.76 601.05 270.66 600.38C269.436 600.316 268.242 599.974 267.17 599.38C265.25 598.08 264.83 595.48 264.6 593.17C261.107 559.117 258.773 524.973 257.6 490.74C257.55 489.43 300.29 489.31 303.95 492.74C307.61 496.17 304.77 509 303.95 513.37C302.61 521.15 300.19 528.73 298 536.34Z" fill="black"/>
<path d="M209 485.87L226.31 523.94C232.07 536.6 237.87 549.4 240.62 563.03C241.723 568.724 242.428 574.488 242.73 580.28C243.148 585.245 242.993 590.241 242.27 595.17C241.64 598.83 240.48 602.39 239.97 606.07C237.97 620.74 246.28 634.54 251.97 648.19C256.886 659.913 260.014 672.308 261.25 684.96C261.77 690.35 262.06 696.07 265.14 700.52C270.77 698.83 276.27 697.37 282.14 698.03C283.19 689.42 277.75 681.49 275.75 673.03C272.08 657.53 280.19 641.24 277.43 625.55C275.93 617.05 271.28 609.05 271.66 600.43C272.37 584.71 275.32 568.83 272.32 553.43C268.94 536.02 259.22 520.19 257.07 502.59C255.42 489.07 258.07 474.12 250.54 462.76C234.09 461.79 217.08 471.5 209 485.87Z" fill="#A0616A"/>
<path d="M265.89 724.95C264.16 725.01 262.14 724.95 261.07 723.58C260.548 722.783 260.248 721.861 260.2 720.91C259.381 714.882 258.98 708.804 259 702.72C259 700.5 259.1 698.14 260.34 696.31C261.25 695.193 262.287 694.186 263.43 693.31C266.08 690.86 268.01 687.31 271.43 686.18C272.928 685.744 274.517 685.723 276.026 686.12C277.536 686.516 278.909 687.314 280 688.43C282.158 690.731 283.494 693.681 283.8 696.82C284.3 700.54 283.88 704.59 285.85 707.82C286.63 709.07 287.72 710.09 288.6 711.27C291.6 715.27 294.29 723.1 288.1 724.72C281.54 726.43 272.7 724.73 265.89 724.95Z" fill="#1C1917"/>
<path d="M280.9 260.57C284.4 253.81 282.31 245.11 277.31 239.37C272.31 233.63 265 230.43 257.54 228.7C247.54 226.36 236.82 226.38 227.25 230.06C219.62 232.99 213.05 238.06 206.01 242.2C193.569 249.524 179.644 253.966 165.26 255.2C149.26 256.55 131.39 254.45 119.02 264.64C96.36 283.3 112.14 325.35 91.02 345.71C85.32 351.2 77.71 354.17 71.18 358.64C64.65 363.11 58.81 370.26 59.86 378.1C60.36 381.87 62.42 385.27 64.8 388.24C75.02 401.01 92.18 407.7 108.41 405.71C124.64 403.72 139.5 393.3 147.41 378.96C149.41 375.37 151.03 371.44 154.18 368.83C160.49 363.62 169.75 365.73 177.93 365.48C196.12 364.92 212.64 349.33 214.23 331.19C214.91 323.44 213.59 314.42 219.16 308.98C223.65 304.58 230.67 304.62 236.81 303.27C248.09 300.8 256.3 292.64 261.45 282.68C263.81 278.1 263.57 272.98 267.07 269.18C270.8 265 277.57 266.99 280.9 260.57Z" fill="#1C1917"/>
<g opacity="0.1">
<path d="M150.35 258.37C156.984 257.804 163.543 256.554 169.92 254.64C168.12 254.89 166.32 255.1 164.51 255.25C151.97 256.3 138.25 255.25 126.95 259.66C134.65 258.87 142.72 259.01 150.35 258.37Z" fill="black"/>
<path d="M139.19 372C136.04 374.6 134.38 378.54 132.42 382.13C126.36 393.054 116.655 401.503 105 406C105.89 405.94 106.78 405.86 107.67 405.75C123.9 403.75 138.76 393.35 146.67 379.01C148.67 375.42 150.28 371.48 153.44 368.88L153.98 368.46C148.49 368.33 143.23 368.66 139.19 372Z" fill="black"/>
<path d="M276.56 239.43C271.56 233.69 264.2 230.5 256.79 228.76C246.79 226.42 236.07 226.45 226.49 230.13L225.85 230.39C231.486 230.069 237.139 230.571 242.63 231.88C250.04 233.62 257.41 236.81 262.4 242.56C267.39 248.31 269.49 257 265.99 263.76C262.66 270.18 255.89 268.18 252.08 272.33C248.58 276.12 248.82 281.25 246.46 285.83C242.03 294.4 235.32 301.62 226.36 305.05C229.49 304.31 232.85 303.98 235.97 303.3C247.25 300.82 255.46 292.67 260.61 282.71C262.98 278.13 262.74 273 266.23 269.21C270.05 265.06 276.82 267.05 280.14 260.64C283.64 253.9 281.55 245.2 276.56 239.43Z" fill="black"/>
<path d="M221.82 306.43C215.68 307.77 208.66 307.74 204.17 312.13C198.6 317.58 199.92 326.6 199.24 334.35C198.05 347.9 188.52 360.03 176.19 365.54H177.1C195.29 364.98 211.8 349.38 213.39 331.25C214.08 323.49 212.76 314.47 218.33 309.03C219.606 307.812 221.108 306.854 222.75 306.21L221.82 306.43Z" fill="black"/>
</g>
<path d="M281.2 351.58C280.37 353.05 278.66 353.73 277.07 354.32C260.61 360.38 243.29 366.55 225.93 364C225.28 361.27 224.64 358.53 224 355.8C223.073 351.84 222.14 347.88 221.2 343.92C220.76 342.03 220.31 340.12 219.95 338.2C219.33 335.168 219.131 332.066 219.36 328.98C219.466 327.862 219.667 326.754 219.96 325.67C220.474 323.697 221.334 321.832 222.5 320.16C222.7 319.89 222.91 319.62 223.13 319.36C224.119 318.168 225.319 317.168 226.67 316.41C229.62 314.79 233.67 314.1 234.86 310.96C235.32 309.318 235.275 307.576 234.73 305.96C233.73 301.96 231.92 298.2 230.8 294.24C229.38 289.24 231.52 289.55 236.35 288.34C245.05 286.15 254.15 284.58 263.08 286.34C262.66 290.75 262.25 295.27 263.36 299.57C264.47 303.87 267.44 307.95 271.71 309.14C272.34 309.32 273.01 309.43 273.71 309.58C274.637 309.729 275.517 310.092 276.28 310.64C276.806 311.075 277.224 311.626 277.5 312.25C277.935 313.305 278.221 314.416 278.35 315.55C279.917 326.043 281.047 336.587 281.74 347.18V347.58C281.946 348.938 281.758 350.326 281.2 351.58Z" fill="#A0616A"/>
<path d="M196.46 334.35C192.72 340.04 191.46 346.96 190.32 353.68L183.06 395.78C182.06 401.54 181.17 407.87 184.12 412.92C185.12 414.63 186.52 416.11 187.25 417.92C187.802 419.741 188.163 421.614 188.33 423.51C190.03 433.16 199.52 439.67 209.04 442.01C212.48 442.86 216.5 443.19 219.21 440.9C222.21 438.41 222.21 433.67 220.44 430.25C218.67 426.83 215.44 424.41 212.31 422.12L201.94 414.48L207.94 368.48C208.38 365.14 209.94 360.81 213.32 361.18C216.4 361.51 218.77 366 221.51 364.55C222.369 363.969 222.973 363.082 223.2 362.07C224.4 358.3 224.07 354.24 223.73 350.29L222.49 336.03C222.08 331.4 223.27 327.93 223.83 323.58C224.48 318.51 221.1 320.05 216.93 321.14C208.92 323.26 201.09 327.29 196.46 334.35Z" fill="#A0616A"/>
<path d="M325.41 403.49C324.648 404.772 323.52 405.796 322.17 406.43C314.073 410.995 304.552 412.334 295.51 410.18C293.426 409.568 291.31 409.074 289.17 408.7C285.75 408.28 282.27 408.96 278.82 408.7C271.82 408.17 265.67 403.8 260.82 398.7C257.9 395.7 255.25 390.79 257.97 387.57C258.73 386.793 259.674 386.221 260.714 385.906C261.754 385.591 262.857 385.544 263.92 385.77C266.037 386.242 268.08 387.002 269.99 388.03C276.683 391.133 283.843 393.106 291.18 393.87C296.18 394.39 302.54 393.54 304.27 388.79C305.11 386.48 304.52 383.92 303.93 381.53C302.317 374.983 300.703 368.433 299.09 361.88C298.979 361.308 298.776 360.757 298.49 360.25C298.408 360.113 298.311 359.985 298.2 359.87C297.562 359.339 296.791 358.993 295.97 358.87C292.24 357.95 288.51 356.46 285.84 353.71C284.09 351.758 282.696 349.514 281.72 347.08C281.44 346.47 281.18 345.85 280.91 345.23C278.86 340.45 276.7 335.55 275.03 330.53C273.864 327.137 273.004 323.646 272.46 320.1C272.02 317.03 271.78 315.62 273.46 314.26C273.91 313.92 274.389 313.619 274.89 313.36C275.66 312.95 276.53 312.54 277.45 312.15L278.34 311.78C281.075 310.686 283.886 309.79 286.75 309.1C293.69 307.49 301.1 310.85 305.86 316.16C310.62 321.47 313.09 328.42 314.67 335.37C316.25 342.32 317.06 349.44 319.04 356.28C319.81 358.96 320.77 361.6 321.43 364.28C322.138 367.468 322.643 370.698 322.94 373.95C323.88 382.237 324.817 390.523 325.75 398.81C326.095 400.37 325.977 401.996 325.41 403.49Z" fill="#A0616A"/>
<path d="M222.73 399.89C224.73 412.65 218.98 425.2 213.42 436.89C216.57 439.19 220.42 440.33 224.18 441.32C249.346 447.936 275.508 449.904 301.38 447.13C302 442.81 302.58 438.23 300.81 434.25C299.71 431.78 297.81 429.77 296.6 427.35C294.6 423.35 294.8 418.7 295.02 414.26L296.81 376.43C284.4 370.71 270.01 376.07 256.36 376.84C249.29 377.24 242.13 376.38 235.16 377.63C231.54 378.28 220.16 380.07 218.45 383.8C216.74 387.53 222.12 395.83 222.73 399.89Z" fill="#A0616A"/>
<path opacity="0.05" d="M222.73 399.89C224.73 412.65 218.98 425.2 213.42 436.89C216.57 439.19 220.42 440.33 224.18 441.32C249.346 447.936 275.508 449.904 301.38 447.13C302 442.81 302.58 438.23 300.81 434.25C299.71 431.78 297.81 429.77 296.6 427.35C294.6 423.35 294.8 418.7 295.02 414.26L296.81 376.43C284.4 370.71 270.01 376.07 256.36 376.84C249.29 377.24 242.13 376.38 235.16 377.63C231.54 378.28 220.16 380.07 218.45 383.8C216.74 387.53 222.12 395.83 222.73 399.89Z" fill="black"/>
<path d="M255.61 436.51C242.16 433.71 228.94 429.08 215.21 428.76C214.521 428.69 213.826 428.822 213.21 429.14C212.54 429.694 212.093 430.472 211.95 431.33C210.53 436.23 209.26 441.167 208.14 446.14C204.42 462.67 202.59 480.93 210.77 495.77C210.69 490.95 213.72 486.44 217.77 483.77C221.82 481.1 226.67 480.02 231.47 479.58C236.27 479.14 241.4 479.32 245.87 481.29C248.994 482.709 251.689 484.926 253.685 487.717C255.681 490.508 256.907 493.775 257.24 497.19L304.49 498.72C304.767 498.801 305.059 498.811 305.341 498.75C305.622 498.69 305.884 498.559 306.103 498.372C306.321 498.184 306.489 497.945 306.592 497.675C306.695 497.406 306.728 497.116 306.69 496.83C308.432 481.673 308.368 466.362 306.5 451.22C305.98 446.99 305.91 441.12 301.15 439.53C295.47 437.63 286.49 439.85 280.42 439.59C272.08 439.239 263.783 438.209 255.61 436.51Z" fill="#1C1917"/>
<path d="M298.5 362.43L298.35 383.43L250.55 385.02C241.78 385.32 232.94 385.62 224.39 387.57C221.93 388.13 219.5 388.83 217.08 389.52C214.56 380.29 212.08 370.62 212.74 361.21C212.922 358.671 213.365 356.158 214.06 353.71C215.58 348.43 218.43 343.45 219.95 338.23C220.563 336.198 220.899 334.092 220.95 331.97C220.837 329.851 220.501 327.749 219.95 325.7C219.511 324.019 219.303 322.287 219.33 320.55L223.12 319.38C223.23 319.83 223.32 320.27 223.4 320.73C223.56 321.68 223.69 322.65 223.78 323.62C223.994 326.024 224.061 328.438 223.98 330.85C223.85 335.67 223.2 341.04 226.21 344.85C230.12 349.74 237.64 348.98 243.78 347.76L259.86 344.55C264.94 343.55 270.61 342.13 273.26 337.68C274.391 335.519 274.987 333.119 275 330.68V330.2C275.239 324.889 274.71 319.57 273.43 314.41C273.04 312.79 272.56 311.19 272.02 309.62H273.63C274.557 309.769 275.437 310.132 276.2 310.68C276.726 311.115 277.144 311.666 277.42 312.29L278.31 311.92C281.858 326.424 287.705 340.265 295.63 352.92C296.649 354.368 297.457 355.954 298.03 357.63C298.268 358.539 298.402 359.471 298.43 360.41C298.51 361 298.5 361.71 298.5 362.43Z" fill="#E6AF25"/>
<path d="M248 298.87C264.016 298.87 277 285.886 277 269.87C277 253.854 264.016 240.87 248 240.87C231.984 240.87 219 253.854 219 269.87C219 285.886 231.984 298.87 248 298.87Z" fill="#A0616A"/>
<path d="M196.46 334.35C192.72 340.04 191.46 346.96 190.32 353.68L183.06 395.78C182.06 401.54 181.17 407.87 184.12 412.92C185.12 414.63 186.52 416.11 187.25 417.92C187.802 419.741 188.163 421.614 188.33 423.51C190.03 433.16 199.52 439.67 209.04 442.01C212.48 442.86 216.5 443.19 219.21 440.9C222.21 438.41 222.21 433.67 220.44 430.25C218.67 426.83 215.44 424.41 212.31 422.12L201.94 414.48L207.94 368.48C208.34 365.17 201.09 327.29 196.46 334.35Z" fill="#A0616A"/>
<path d="M314.68 335.43C316.26 342.38 317.07 349.5 319.05 356.34C319.82 359.03 320.78 361.66 321.44 364.34C322.148 367.525 322.653 370.751 322.95 374L325.76 398.86C326.084 400.395 325.962 401.991 325.41 403.46C324.645 404.739 323.518 405.763 322.17 406.4C314.07 410.953 304.552 412.292 295.51 410.15C293.429 409.528 291.311 409.034 289.17 408.67C285.75 408.24 282.27 408.93 278.82 408.67C271.82 408.14 265.67 403.78 260.82 398.72C257.9 395.72 255.25 390.8 257.97 387.58C258.73 386.803 259.674 386.231 260.714 385.916C261.754 385.601 262.857 385.554 263.92 385.78C266.038 386.255 268.08 387.019 269.99 388.05C276.685 391.145 283.844 393.115 291.18 393.88C296.18 394.41 302.54 393.56 304.27 388.8C305.11 386.49 304.52 383.93 303.93 381.54L299.09 361.89C298.89 361.21 313.1 328.49 314.68 335.43Z" fill="#A0616A"/>
<path d="M230.05 278.8C228.76 274.17 226.95 268.38 230.58 265.24C231.885 264.233 233.456 263.631 235.1 263.51C243.25 262.51 251.68 267.31 259.48 264.75C261.968 263.937 264.167 262.421 265.813 260.386C267.459 258.351 268.48 255.882 268.754 253.279C269.028 250.676 268.542 248.05 267.356 245.716C266.17 243.383 264.334 241.443 262.07 240.13C258.66 238.13 254.59 237.74 250.66 237.39C240.31 236.44 229.52 235.56 219.84 239.39C210.16 243.22 202 253.08 204 263.29C204.93 268.16 207.94 272.35 211 276.23C213.35 279.18 222.78 293.23 226.57 293.03C231.91 292.73 230.89 281.81 230.05 278.8Z" fill="#1C1917"/>
<path opacity="0.1" d="M262.07 240.13C261.492 239.796 260.891 239.505 260.27 239.26C262.026 240.853 263.333 242.88 264.06 245.137C264.786 247.394 264.908 249.802 264.412 252.12C263.916 254.439 262.819 256.587 261.233 258.349C259.646 260.11 257.624 261.425 255.37 262.16C247.57 264.72 239.14 259.92 230.99 260.92C229.346 261.041 227.775 261.643 226.47 262.65C222.84 265.79 224.65 271.58 225.94 276.21C226.78 279.21 227.8 290.14 222.48 290.44H222.39C224.04 292.05 225.53 293.1 226.59 293.04C231.91 292.74 230.89 281.82 230.05 278.81C228.76 274.18 226.95 268.39 230.58 265.25C231.885 264.243 233.456 263.641 235.1 263.52C243.25 262.52 251.68 267.32 259.48 264.76C261.968 263.947 264.167 262.431 265.813 260.396C267.459 258.361 268.48 255.892 268.754 253.289C269.028 250.686 268.542 248.06 267.356 245.726C266.17 243.393 264.334 241.453 262.07 240.14V240.13Z" fill="black"/>
<path d="M688 600.87H362V701.87H688V600.87Z" fill="#1C1917"/>
<path d="M511 633.51V669.21L539 651.36L511 633.51Z" fill="#F5F5F4"/>
<path d="M261 34.13L245.48 43.97L254.9 26.84C252.23 24.709 248.926 23.53 245.51 23.49H245.26C244.182 23.5058 243.104 23.4255 242.04 23.25L236.78 26.58L239.04 22.48C235.308 21.1819 232.086 18.7303 229.84 15.48L220.42 21.48L226.37 10.67C220.86 4.06001 213.44 0.0100098 205.28 0.0100098C195.49 0.0100098 186.77 5.83001 181.14 14.9C179.475 17.6234 177.116 19.8551 174.304 21.3663C171.493 22.8775 168.33 23.6139 165.14 23.5H164.61C153.8 23.5 145.04 35.75 145.04 50.87C145.04 65.99 153.8 78.24 164.61 78.24C166.988 78.2289 169.328 77.6422 171.43 76.53C175.107 74.7402 179.13 73.7719 183.219 73.6925C187.308 73.613 191.366 74.4243 195.11 76.07C198.278 77.4872 201.709 78.2198 205.18 78.2198C208.651 78.2198 212.082 77.4872 215.25 76.07C218.968 74.4582 222.989 73.6651 227.04 73.7445C231.091 73.8239 235.078 74.7739 238.73 76.53C240.81 77.6188 243.122 78.1915 245.47 78.2C256.28 78.2 265.04 65.94 265.04 50.83C265.114 45.0127 263.725 39.2701 261 34.13Z" fill="#F2F2F2"/>
<path opacity="0.03" d="M231.74 74.18C226.103 73.111 220.275 73.7445 215 76C211.831 77.4141 208.4 78.145 204.93 78.145C201.46 78.145 198.029 77.4141 194.86 76C191.115 74.3578 187.057 73.5493 182.968 73.6305C178.88 73.7116 174.857 74.6805 171.18 76.47C169.077 77.5779 166.737 78.1612 164.36 78.17C154.76 78.17 146.77 68.5 145.11 55.74C147.024 54.3372 148.653 52.5825 149.91 50.57C155.54 41.49 164.26 35.67 174.05 35.67C183.84 35.67 192.45 41.42 198.05 50.4C199.735 53.1008 202.088 55.3214 204.882 56.8472C207.676 58.373 210.817 59.1523 214 59.11H214.25C221.9 59.11 228.52 65.24 231.74 74.18Z" fill="black"/>
<path d="M792 257.17L784.26 262.08L788.96 253.53C787.629 252.469 785.982 251.882 784.28 251.86H784.15C783.615 251.869 783.079 251.832 782.55 251.75L779.88 253.43L781.01 251.38C779.15 250.735 777.543 249.517 776.42 247.9L771.72 250.9L774.72 245.51C773.471 243.898 771.879 242.585 770.06 241.664C768.24 240.744 766.238 240.241 764.2 240.19C759.32 240.19 754.97 243.09 752.2 247.62C751.366 248.98 750.186 250.094 748.781 250.848C747.375 251.601 745.794 251.968 744.2 251.91H743.94C738.55 251.91 734.18 258.03 734.18 265.56C734.18 273.09 738.55 279.22 743.94 279.22C745.125 279.215 746.292 278.923 747.34 278.37C749.174 277.477 751.179 276.993 753.219 276.952C755.258 276.91 757.282 277.312 759.15 278.13C760.721 278.841 762.425 279.212 764.15 279.22C765.872 279.214 767.574 278.853 769.15 278.16C771.004 277.356 773.009 276.96 775.029 276.998C777.049 277.036 779.038 277.507 780.86 278.38C781.896 278.927 783.049 279.215 784.22 279.22C789.61 279.22 793.98 273.1 793.98 265.56C794.038 262.641 793.357 259.755 792 257.17Z" fill="#F2F2F2"/>
<path opacity="0.03" d="M777.37 277.15C774.555 276.61 771.643 276.927 769.01 278.06C767.436 278.761 765.733 279.124 764.01 279.124C762.287 279.124 760.584 278.761 759.01 278.06C757.142 277.243 755.118 276.841 753.08 276.881C751.041 276.92 749.035 277.401 747.2 278.29C746.153 278.848 744.986 279.143 743.8 279.15C739.01 279.15 735.03 274.32 734.2 267.96C735.155 267.261 735.966 266.386 736.59 265.38C739.4 260.85 743.75 257.95 748.59 257.95C753.43 257.95 757.77 260.82 760.59 265.29C761.43 266.649 762.61 267.767 764.012 268.533C765.415 269.299 766.992 269.687 768.59 269.66H768.71C772.46 269.63 775.77 272.69 777.37 277.15Z" fill="black"/>
<path d="M809.13 129.66L821.56 137.55L814 123.82C816.14 122.117 818.785 121.174 821.52 121.14H821.72C822.584 121.153 823.447 121.089 824.3 120.95L828.52 123.62L826.71 120.34C829.694 119.293 832.272 117.334 834.08 114.74L841.63 119.52L836.86 110.86C841.27 105.56 847.22 102.32 853.76 102.32C861.61 102.32 868.59 106.98 873.1 114.25C874.434 116.425 876.32 118.209 878.566 119.419C880.813 120.629 883.34 121.223 885.89 121.14H886.31C894.97 121.14 901.99 130.96 901.99 143.07C901.99 155.18 894.99 165 886.31 165C884.406 164.99 882.533 164.52 880.85 163.63C877.9 162.192 874.672 161.414 871.391 161.35C868.11 161.286 864.854 161.938 861.85 163.26C859.312 164.394 856.564 164.98 853.785 164.98C851.006 164.98 848.258 164.394 845.72 163.26C842.742 161.967 839.521 161.33 836.276 161.392C833.03 161.454 829.836 162.214 826.91 163.62C825.239 164.49 823.384 164.949 821.5 164.96C812.84 164.96 805.82 155.14 805.82 143.03C805.788 138.367 806.926 133.77 809.13 129.66Z" fill="#F2F2F2"/>
<path opacity="0.03" d="M832.56 161.75C837.085 160.888 841.765 161.396 846 163.21C848.538 164.344 851.286 164.93 854.065 164.93C856.844 164.93 859.592 164.344 862.13 163.21C865.135 161.892 868.391 161.243 871.672 161.309C874.953 161.375 878.18 162.153 881.13 163.59C882.814 164.477 884.687 164.944 886.59 164.95C894.28 164.95 900.68 157.2 902.02 146.95C900.478 145.832 899.169 144.422 898.17 142.8C893.66 135.54 886.67 130.87 878.83 130.87C870.99 130.87 864.08 135.48 859.57 142.67C858.222 144.838 856.338 146.622 854.099 147.848C851.86 149.074 849.343 149.702 846.79 149.67H846.59C840.45 149.68 835.14 154.59 832.56 161.75Z" fill="black"/>
</g>
<defs>
<clipPath id="clip0_712_40">
<rect width="1050" height="750.87" fill="white"/>
</clipPath>
</defs>
</svg>
